<?xml version="1.0" standalone="no"?>
<!DOCTYPE svg PUBLIC "-//W3C//DTD SVG 20010904//EN"
 "http://www.w3.org/TR/2001/REC-SVG-20010904/DTD/svg10.dtd">
<svg version="1.0" xmlns="http://www.w3.org/2000/svg"
 width="2000.000000pt" height="2000.000000pt" viewBox="0 0 2000.000000 2000.000000"
 preserveAspectRatio="xMidYMid meet">
<metadata>
Created by potrace 1.11, written by Peter Selinger 2001-2013
</metadata>
<g transform="translate(0.000000,2000.000000) scale(0.100000,-0.100000)"
fill="#000000" stroke="none">
<path d="M5908 16035 c-2 -1 -75 -5 -164 -9 -88 -4 -172 -8 -185 -11 -13 -2
-62 -6 -109 -10 -99 -7 -185 -15 -220 -20 -25 -3 -87 -11 -170 -20 -25 -3 -52
-7 -60 -10 -8 -2 -35 -6 -60 -9 -25 -4 -56 -8 -70 -10 -14 -3 -70 -12 -125
-21 -412 -68 -923 -219 -1315 -388 -14 -5 -27 -11 -30 -12 -12 -3 -153 -71
-245 -118 -164 -84 -186 -96 -279 -152 -49 -30 -90 -55 -92 -55 -16 0 -366
-251 -460 -329 -17 -14 -43 -35 -57 -47 -88 -68 -342 -312 -473 -454 -196
-213 -484 -602 -606 -820 -14 -25 -35 -63 -48 -85 -260 -457 -469 -996 -595
-1534 -23 -96 -76 -350 -80 -384 -2 -16 -6 -40 -9 -55 -5 -25 -9 -45 -20 -119
-6 -39 -24 -169 -31 -220 -3 -24 -7 -60 -10 -80 -2 -21 -7 -65 -10 -98 -3 -33
-8 -76 -10 -95 -2 -19 -7 -78 -11 -130 -3 -52 -7 -111 -9 -130 -21 -217 -21
-964 0 -1205 2 -22 6 -85 10 -140 3 -55 7 -107 10 -115 2 -8 6 -46 10 -85 7
-80 9 -99 31 -270 6 -45 22 -147 29 -185 2 -14 6 -41 9 -60 15 -124 128 -614
176 -770 6 -19 13 -42 15 -50 7 -31 107 -326 121 -357 8 -17 14 -34 14 -37 0
-17 132 -321 200 -460 203 -418 446 -786 752 -1139 68 -78 354 -367 448 -453
199 -180 583 -457 800 -577 25 -13 81 -45 125 -69 80 -44 216 -111 330 -162
353 -160 798 -298 1200 -371 44 -8 91 -17 105 -20 13 -2 42 -7 65 -10 22 -3
51 -8 65 -10 43 -8 83 -13 140 -20 30 -3 66 -8 80 -10 14 -2 59 -7 100 -10 41
-4 91 -8 110 -10 184 -20 865 -27 1110 -12 171 11 311 23 390 32 19 2 64 7
100 10 36 3 81 8 100 10 101 12 127 16 150 20 14 2 44 7 68 10 101 12 136 18
301 46 146 25 329 59 392 74 9 2 61 13 115 25 55 11 155 34 224 51 69 17 134
32 144 35 10 2 58 14 105 28 81 22 133 36 156 41 41 10 478 142 580 177 33 11
65 21 70 23 6 1 17 5 25 8 16 6 271 90 280 92 3 1 17 5 31 9 l27 8 0 819 c0
850 0 850 -38 804 -7 -8 -16 -15 -21 -15 -5 0 -26 -11 -47 -24 -81 -51 -473
-245 -629 -312 -18 -8 -48 -20 -65 -28 -184 -80 -461 -183 -683 -256 -186 -60
-506 -155 -555 -163 -14 -3 -45 -11 -70 -18 -25 -7 -49 -14 -55 -15 -26 -6
-242 -56 -260 -60 -11 -2 -51 -10 -90 -18 -38 -8 -88 -18 -110 -22 -22 -4 -44
-8 -50 -10 -23 -6 -394 -63 -450 -69 -33 -4 -71 -9 -85 -11 -136 -22 -703 -22
-865 1 -16 2 -61 6 -99 10 -38 3 -79 7 -90 10 -12 2 -43 6 -71 9 -64 7 -270
43 -360 63 -760 168 -1368 505 -1850 1025 -105 113 -123 135 -221 265 -52 71
-99 133 -103 139 -5 5 -14 21 -21 34 -7 13 -17 29 -22 34 -17 20 -85 131 -126
206 -157 283 -301 634 -392 955 -38 133 -31 107 -74 295 -40 176 -41 183 -62
305 -8 50 -17 102 -19 118 -8 47 -13 80 -20 137 -4 30 -9 62 -10 70 -1 8 -6
47 -10 85 -4 39 -8 84 -10 100 -2 17 -6 68 -10 115 -4 47 -8 105 -10 129 -23
268 -23 974 0 1206 2 22 7 78 10 125 9 116 15 181 31 310 6 50 35 247 40 273
2 12 13 72 24 132 17 93 51 250 89 405 5 19 25 89 45 155 20 66 38 127 40 135
2 8 25 73 51 143 165 455 383 843 668 1187 60 72 285 302 352 359 33 29 168
135 195 154 217 153 391 252 630 360 114 52 353 137 500 178 59 16 62 17 85
23 11 2 58 14 105 26 47 12 94 24 105 26 11 2 54 11 95 19 107 22 119 24 165
30 22 3 51 8 65 10 42 8 83 14 135 20 28 4 61 8 75 10 14 2 52 7 85 10 33 3
83 8 110 11 55 7 67 8 265 20 269 17 632 8 880 -20 152 -18 157 -19 310 -41
21 -3 128 -22 235 -40 81 -14 423 -90 525 -116 63 -17 123 -32 133 -35 33 -8
53 -13 127 -34 41 -12 89 -25 105 -29 137 -38 636 -200 700 -227 25 -11 213
-81 345 -130 27 -10 236 -96 316 -130 9 -4 12 189 12 760 l0 766 -36 9 c-33 9
-112 27 -152 36 -8 1 -35 8 -60 15 -25 7 -53 14 -63 16 -18 3 -27 5 -97 24
-34 9 -186 46 -455 110 -169 40 -451 105 -500 115 -11 2 -110 22 -220 44 -110
22 -255 49 -322 61 -67 11 -130 22 -140 24 -10 2 -54 9 -98 16 -44 6 -91 13
-105 15 -14 2 -45 6 -70 10 -40 5 -66 8 -150 20 -14 2 -54 6 -90 10 -36 3 -81
8 -100 10 -61 8 -141 15 -365 31 -66 5 -732 13 -737 9z"/>
<path d="M15317 16034 c-1 -1 -65 -5 -142 -8 -77 -3 -156 -8 -175 -11 -19 -2
-68 -6 -108 -10 -41 -3 -88 -7 -105 -10 -18 -2 -54 -7 -82 -10 -27 -3 -66 -8
-85 -11 -19 -3 -51 -7 -70 -10 -28 -3 -157 -26 -340 -60 -157 -30 -571 -156
-715 -219 -16 -7 -59 -25 -95 -40 -365 -152 -754 -412 -1038 -693 -193 -190
-308 -338 -456 -580 -87 -143 -194 -385 -255 -575 -30 -95 -84 -306 -95 -377
-3 -19 -8 -48 -11 -65 -11 -65 -15 -92 -21 -145 -3 -30 -7 -66 -10 -80 -8 -54
-18 -282 -17 -420 0 -144 12 -400 18 -410 2 -3 6 -33 10 -65 4 -33 8 -71 10
-85 3 -14 7 -43 10 -65 4 -22 8 -47 10 -55 2 -8 7 -31 10 -50 13 -81 78 -309
122 -428 238 -648 697 -1113 1452 -1474 177 -85 205 -97 251 -113 3 -1 17 -7
33 -13 289 -123 822 -283 1212 -363 55 -11 107 -22 115 -24 8 -2 87 -17 175
-35 88 -17 203 -40 255 -50 52 -11 111 -22 130 -25 19 -3 42 -8 50 -10 8 -2
31 -7 50 -10 59 -10 343 -65 385 -75 66 -15 269 -60 290 -64 45 -9 327 -91
425 -123 281 -94 564 -225 750 -348 58 -38 107 -71 110 -74 3 -3 28 -24 55
-46 66 -53 181 -168 231 -230 21 -27 41 -52 44 -55 18 -16 113 -178 148 -250
38 -80 96 -235 106 -283 49 -228 54 -257 63 -380 12 -164 5 -468 -12 -519 -2
-7 -6 -31 -9 -53 -36 -278 -183 -610 -366 -827 -48 -57 -152 -163 -213 -216
-45 -40 -200 -152 -242 -176 -17 -9 -57 -32 -90 -52 -199 -115 -539 -241 -780
-290 -51 -10 -235 -43 -275 -49 -25 -4 -52 -9 -60 -10 -9 -2 -46 -6 -82 -9
-37 -4 -76 -9 -87 -11 -11 -2 -71 -7 -133 -11 -62 -3 -135 -8 -163 -10 -71 -4
-476 -4 -560 0 -140 8 -290 20 -375 31 -19 2 -59 7 -89 11 -30 3 -63 8 -75 10
-12 2 -43 6 -71 9 -27 3 -57 8 -65 10 -8 2 -33 7 -55 10 -23 3 -52 8 -65 10
-14 3 -61 12 -105 21 -44 8 -89 17 -100 20 -11 2 -30 6 -42 8 -12 3 -68 16
-125 30 -57 15 -112 28 -123 31 -72 15 -254 69 -450 132 -484 157 -1052 407
-1591 703 l-71 39 0 -803 c-1 -442 2 -808 6 -813 14 -22 856 -302 973 -323 4
-1 29 -8 55 -17 54 -16 97 -28 308 -83 83 -21 161 -41 175 -43 14 -3 52 -12
85 -20 53 -14 171 -40 245 -53 14 -3 66 -14 115 -24 83 -18 156 -31 245 -45
19 -3 46 -7 60 -10 14 -3 39 -7 55 -10 17 -3 39 -7 50 -9 19 -3 86 -13 153
-22 17 -2 47 -6 65 -8 17 -3 55 -8 82 -11 28 -3 64 -8 80 -10 17 -2 77 -9 135
-14 308 -30 434 -35 820 -35 416 0 582 7 915 40 78 7 285 34 456 59 36 6 371
74 391 81 9 2 25 6 35 8 126 25 494 141 638 201 371 155 620 295 870 490 468
365 795 850 964 1429 38 128 75 285 87 364 7 47 12 80 18 112 50 260 55 900
10 1195 -3 22 -8 54 -10 70 -3 17 -9 57 -15 90 -6 33 -13 74 -16 90 -2 17 -16
73 -29 125 -14 52 -27 103 -29 113 -12 52 -72 225 -112 322 -309 757 -907
1308 -1828 1685 -169 69 -632 226 -721 245 -11 2 -100 24 -199 48 -99 25 -197
48 -219 51 -21 4 -41 8 -45 10 -3 3 -25 7 -47 10 -22 4 -49 8 -59 10 -354 74
-1025 212 -1085 222 -50 9 -226 46 -260 54 -19 5 -46 11 -60 14 -14 2 -79 18
-145 35 -961 241 -1401 535 -1581 1056 -141 407 -130 925 28 1324 128 320 365
591 700 799 73 45 255 133 363 175 251 98 580 174 870 202 39 4 78 9 89 11 93
17 656 25 861 11 206 -13 266 -19 333 -32 10 -1 48 -6 87 -10 38 -4 72 -8 75
-10 4 -2 51 -10 125 -20 11 -1 70 -13 130 -25 61 -12 121 -24 135 -26 14 -3
41 -9 60 -14 19 -5 46 -11 60 -14 50 -9 305 -78 419 -112 64 -20 123 -37 131
-39 29 -7 285 -97 459 -162 176 -66 523 -210 669 -279 42 -20 102 -48 132 -61
30 -14 58 -27 63 -30 4 -2 7 342 7 764 l0 769 -72 24 c-40 13 -75 24 -78 25
-4 1 -68 20 -105 31 -165 50 -384 115 -399 119 -12 3 -123 31 -248 64 -126 32
-228 57 -228 56 0 -2 -15 1 -32 6 -18 6 -42 12 -53 14 -11 3 -74 16 -140 30
-66 14 -136 28 -155 31 -19 3 -42 7 -52 10 -9 3 -41 9 -72 14 -31 6 -82 15
-113 20 -32 6 -74 13 -93 16 -19 2 -57 9 -85 14 -27 5 -87 14 -132 20 -46 6
-97 13 -115 15 -18 3 -58 7 -88 10 -30 3 -66 7 -80 10 -14 2 -54 7 -90 10 -36
4 -80 8 -99 10 -19 3 -71 7 -115 10 -45 3 -103 7 -131 10 -137 13 -867 29
-878 19z"/>
<path d="M5243 12074 c-149 -31 -290 -134 -381 -279 -65 -105 -91 -314 -56
-451 50 -189 203 -352 383 -408 95 -29 255 -34 346 -11 215 55 385 235 424
449 13 73 11 198 -5 269 -48 210 -221 383 -431 431 -77 17 -199 18 -280 0z"/>
<path d="M8311 12079 c-197 -37 -369 -186 -439 -382 -23 -63 -26 -88 -26 -197
-1 -95 4 -138 18 -180 53 -157 159 -281 299 -350 95 -47 161 -61 272 -60 95 0
120 4 202 31 194 63 338 237 378 454 10 55 6 172 -9 244 -45 214 -214 384
-433 435 -67 15 -193 18 -262 5z"/>
<path d="M5314 9199 c-165 -20 -286 -85 -392 -213 -121 -144 -164 -356 -111
-547 19 -70 66 -168 94 -196 8 -7 22 -23 32 -36 10 -12 41 -41 68 -64 153
-126 353 -160 570 -96 33 9 62 20 65 23 3 3 22 14 43 24 87 44 207 182 245
281 55 145 54 321 -4 465 -75 190 -267 336 -465 355 -35 4 -68 7 -74 9 -5 1
-38 -1 -71 -5z"/>
<path d="M8365 9198 c-95 -12 -186 -44 -250 -87 -77 -51 -91 -64 -148 -134
-92 -113 -130 -235 -123 -399 7 -170 54 -278 170 -393 120 -118 243 -168 416
-167 52 0 123 7 156 15 128 31 269 132 341 245 137 214 124 510 -31 697 -109
132 -240 206 -391 221 -33 3 -64 6 -70 8 -5 1 -37 -1 -70 -6z"/>
</g>
</svg>
